<?xml version="1.0" standalone="no"?>
<!DOCTYPE svg PUBLIC "-//W3C//DTD SVG 20010904//EN"
 "http://www.w3.org/TR/2001/REC-SVG-20010904/DTD/svg10.dtd">
<svg version="1.0" xmlns="http://www.w3.org/2000/svg" viewBox="0 0 1800.000000 1800.000000" preserveAspectRatio="xMidYMid meet">

<g transform="translate(0.000000,1800.000000) scale(0.100000,-0.100000)"
fill="#000000" stroke="none">
<path d="M10611 14260 c-233 -49 -425 -206 -600 -488 -194 -313 -397 -862
-551 -1495 -16 -66 -31 -122 -34 -124 -2 -2 -13 11 -25 30 -50 81 -176 167
-244 167 -41 0 -55 -15 -91 -100 -58 -134 -118 -239 -149 -263 -82 -62 -241
-116 -387 -132 l-66 -7 -18 74 c-78 305 -234 808 -333 1068 -147 386 -329 720
-493 905 -178 201 -357 296 -560 297 -254 1 -459 -128 -589 -372 -69 -130
-133 -368 -163 -610 -20 -161 -17 -794 5 -1040 36 -397 85 -775 163 -1254 l46
-279 -51 -106 c-104 -219 -172 -428 -220 -672 -55 -284 -65 -405 -66 -825 l0
-381 -84 -77 c-296 -272 -523 -603 -635 -925 -48 -137 -66 -242 -66 -381 0
-199 44 -322 203 -563 66 -101 109 -151 251 -292 l170 -170 17 -98 c39 -218
151 -350 332 -388 28 -6 54 -13 56 -15 2 -1 9 -54 16 -116 15 -123 11 -205
-26 -513 -69 -580 -82 -809 -55 -915 50 -194 252 -343 551 -405 140 -29 273
-39 520 -39 344 0 477 24 660 117 61 32 101 62 170 132 77 77 105 116 197 270
237 400 366 678 428 923 l11 42 132 0 133 0 38 -212 c156 -872 366 -1172 881
-1256 122 -19 537 -22 690 -3 391 46 599 197 674 486 63 242 141 854 287 2250
l27 260 49 60 c68 83 152 258 183 379 83 327 43 702 -115 1081 l-38 90 -6 422
c-8 544 -25 757 -82 1043 -66 333 -191 664 -341 906 l-50 81 14 104 c45 348
86 750 115 1119 20 261 17 950 -5 1130 -78 637 -271 975 -607 1065 -71 19
-212 27 -269 15z m256 -165 c203 -62 359 -303 432 -665 42 -210 53 -344 58
-694 7 -424 -9 -732 -67 -1281 -42 -399 -57 -498 -77 -512 -71 -49 -69 -62 27
-205 192 -287 326 -645 390 -1042 37 -228 50 -412 55 -796 l6 -375 -84 235
c-104 289 -145 395 -187 483 -30 64 -82 129 -122 152 -16 9 -16 15 4 90 28
107 31 401 5 512 -99 429 -381 742 -772 859 -110 32 -320 44 -442 24 -221 -35
-415 -140 -582 -315 -173 -182 -278 -406 -310 -658 -5 -43 -11 -81 -14 -83 -2
-2 -33 3 -68 12 -77 20 -231 15 -296 -9 l-42 -16 -6 37 c-60 392 -275 707
-596 872 -295 152 -616 155 -914 10 -124 -60 -206 -121 -312 -234 -326 -344
-403 -873 -193 -1315 112 -233 281 -406 505 -517 179 -88 355 -121 547 -103
509 48 912 472 966 1015 l7 69 45 22 c97 48 210 49 317 3 l49 -21 12 -84 c35
-239 170 -498 346 -663 173 -161 394 -262 617 -281 53 -4 111 -6 128 -3 17 2
31 2 31 0 0 -2 -16 -42 -36 -88 -48 -114 -98 -290 -120 -425 -28 -165 -26
-452 4 -602 89 -448 326 -755 681 -883 136 -50 212 -63 361 -64 143 -1 241 18
332 65 22 11 42 18 45 16 2 -3 -23 -261 -57 -573 -141 -1318 -199 -1719 -269
-1870 -98 -209 -343 -294 -845 -294 -571 0 -784 136 -944 601 -57 165 -123
457 -157 691 l-7 46 155 4 c135 3 158 5 176 22 27 25 28 79 1 106 -20 20 -33
20 -610 20 -577 0 -590 0 -610 -20 -25 -25 -26 -71 -1 -101 18 -23 26 -24 171
-27 109 -3 150 -7 147 -15 -2 -7 -12 -39 -21 -71 -60 -205 -222 -533 -434
-874 -194 -313 -395 -394 -937 -379 -242 7 -343 18 -473 52 -210 56 -360 171
-378 293 -13 87 5 347 51 757 42 363 46 426 41 545 -3 74 -9 155 -12 180 l-6
45 59 27 c125 58 365 264 474 408 61 79 144 244 164 324 36 143 28 312 -22
470 -47 150 -149 323 -204 346 -46 20 -99 -16 -99 -66 0 -10 22 -52 50 -93 96
-148 138 -271 147 -431 7 -126 -8 -196 -66 -315 -72 -146 -202 -294 -371 -421
-104 -79 -170 -113 -238 -121 -156 -18 -265 95 -290 300 -5 40 -17 87 -25 104
-9 16 -94 108 -189 204 -184 184 -263 288 -352 463 -91 177 -96 372 -16 616
103 314 393 717 688 954 66 53 72 61 72 95 0 20 -6 43 -12 49 -21 21 -17 668
5 857 53 451 166 797 363 1115 30 49 54 98 54 109 0 12 -12 34 -26 48 -21 21
-32 25 -65 20 -21 -3 -39 -3 -39 -1 0 2 -13 86 -29 186 -66 409 -123 863 -153
1218 -21 245 -17 833 5 1000 57 415 179 656 382 756 139 67 276 65 425 -8 71
-34 102 -58 186 -142 301 -302 561 -902 837 -1931 l24 -91 -29 -26 c-36 -33
-37 -70 -2 -104 28 -29 25 -29 209 0 257 41 411 94 511 174 52 42 66 62 124
175 36 70 69 127 74 127 16 0 77 -72 102 -121 76 -152 65 -351 -27 -462 -30
-36 -113 -87 -143 -87 -27 0 -58 -52 -52 -85 9 -43 30 -60 75 -59 120 4 265
132 318 282 l18 53 77 -7 c84 -7 102 -1 119 43 21 56 -24 94 -128 108 -48 6
-52 9 -48 28 165 737 319 1233 500 1602 187 384 377 591 592 645 52 13 197 5
260 -15z m-401 -3375 c331 -84 592 -356 685 -713 40 -152 37 -382 -6 -532 -14
-47 -18 -51 -70 -74 -95 -41 -161 -138 -180 -264 -7 -45 -9 -47 -49 -57 -151
-39 -289 -132 -407 -276 -24 -30 -31 -32 -110 -39 -309 -25 -623 133 -811 409
-58 85 -116 213 -145 324 -23 85 -26 117 -27 257 0 132 3 175 21 245 133 527
616 842 1099 720z m-2564 -56 c160 -37 291 -109 419 -231 100 -96 156 -173
213 -294 181 -382 113 -843 -168 -1146 -114 -123 -275 -220 -441 -264 -111
-30 -307 -31 -417 -1 -582 157 -883 843 -619 1408 139 296 398 496 706 544 78
12 216 5 307 -16z m3317 -1399 c57 -29 108 -151 322 -768 98 -284 111 -346
107 -500 -3 -115 -2 -120 21 -138 46 -38 103 -15 121 49 5 20 10 64 11 97 l1
60 19 -60 c49 -151 63 -251 63 -455 0 -180 -3 -203 -27 -295 -102 -378 -337
-570 -676 -552 -534 28 -881 466 -881 1112 0 249 53 491 156 712 82 177 183
298 303 362 72 38 148 58 164 42 15 -15 69 -14 93 3 16 12 20 31 25 123 6 122
25 168 83 204 37 23 58 24 95 4z"/>
<path d="M8932 9260 c-101 -21 -193 -99 -208 -176 -24 -131 148 -228 348 -195
85 14 164 54 190 96 27 46 24 123 -7 165 -64 87 -205 134 -323 110z m174 -125
c51 -26 81 -62 71 -88 -13 -33 -79 -52 -184 -52 -88 0 -105 3 -130 21 -40 30
-41 59 -3 94 60 56 164 66 246 25z"/>
</g>
</svg>
