<?xml version="1.0" standalone="no"?>
<!DOCTYPE svg PUBLIC "-//W3C//DTD SVG 20010904//EN"
 "http://www.w3.org/TR/2001/REC-SVG-20010904/DTD/svg10.dtd">
<svg version="1.0" xmlns="http://www.w3.org/2000/svg"
 width="382.000000pt" height="594.000000pt" viewBox="0 0 382.000000 594.000000"
 preserveAspectRatio="xMidYMid meet">

<g transform="translate(0.000000,594.000000) scale(0.100000,-0.100000)"
fill="#000000" stroke="none">
<path d="M2180 5925 c-200 -45 -357 -192 -416 -390 -27 -92 -24 -231 8 -321
32 -91 86 -171 155 -233 57 -51 157 -106 213 -117 32 -7 32 -8 26 -50 -3 -24
-12 -60 -20 -79 l-15 -36 -123 7 c-445 24 -905 -116 -1256 -381 -474 -358
-742 -915 -742 -1542 0 -229 50 -445 141 -610 l40 -73 -30 -37 c-64 -80 -77
-190 -40 -336 24 -97 89 -239 149 -327 96 -141 258 -284 430 -379 l83 -46 19
-70 c10 -38 40 -113 65 -165 62 -125 179 -246 293 -302 185 -90 287 -109 646
-115 l292 -5 17 -64 c46 -169 163 -251 349 -242 160 7 268 77 315 203 18 47
21 75 19 154 l-3 96 70 39 c96 54 219 179 263 269 46 95 70 167 88 267 8 47
18 86 23 88 23 8 141 101 207 164 191 181 313 414 343 653 17 133 -4 225 -69
298 l-33 37 26 58 c111 249 126 559 45 907 -53 228 -173 498 -306 685 -88 124
-310 347 -432 433 -179 126 -426 238 -630 287 -52 13 -96 24 -98 25 -2 2 4 27
12 56 9 29 16 65 16 79 0 25 4 28 71 39 261 47 451 279 452 551 0 145 -43 255
-141 357 -137 143 -342 209 -522 168z m284 -184 c133 -65 214 -178 224 -311
12 -169 -75 -323 -223 -396 -55 -27 -69 -29 -170 -29 -98 0 -116 3 -167 27
-80 37 -152 107 -191 187 -30 61 -32 73 -32 166 0 88 3 107 28 159 53 113 122
176 242 219 37 13 72 17 136 14 74 -3 97 -8 153 -36z m-424 -1191 c641 -49
1165 -401 1435 -963 99 -206 155 -411 177 -655 38 -414 -112 -724 -459 -951
-134 -87 -153 -104 -153 -136 0 -38 15 -61 49 -75 27 -11 36 -9 73 10 102 53
221 142 328 247 141 138 145 137 145 -20 -1 -122 -24 -210 -90 -334 -96 -183
-302 -393 -384 -393 -46 0 -81 -38 -81 -88 0 -22 -7 -78 -15 -125 -62 -354
-273 -508 -785 -572 -68 -8 -136 -15 -151 -15 l-26 0 33 65 c60 118 56 255
-11 392 -64 131 -170 203 -311 211 -179 10 -339 -89 -389 -239 -9 -25 -27 -57
-42 -70 -55 -52 -69 -156 -33 -259 10 -30 17 -56 16 -58 -9 -8 -130 46 -190
86 -116 77 -186 189 -238 382 -28 106 -43 130 -83 130 -26 0 -154 73 -231 132
-80 62 -167 150 -220 225 -82 114 -154 299 -154 397 0 35 23 96 37 96 3 0 38
-30 77 -68 39 -37 103 -89 143 -115 96 -64 276 -149 328 -154 37 -5 44 -2 63
22 44 55 22 101 -65 135 -334 133 -548 360 -632 672 -69 252 -47 609 55 918
217 660 807 1115 1516 1169 57 5 110 9 118 10 8 0 76 -4 150 -9z m-153 -3565
c90 -45 143 -142 143 -263 0 -82 -23 -137 -74 -179 -49 -40 -97 -53 -198 -53
-93 0 -171 19 -212 51 -33 26 -63 84 -72 136 -6 38 -4 41 30 61 23 13 37 31
41 49 24 118 66 173 155 203 76 27 126 25 187 -5z m771 -644 c-4 -46 -12 -81
-26 -103 -57 -91 -228 -116 -317 -46 -30 24 -65 88 -65 121 0 22 5 24 103 36
56 7 143 23 192 36 128 32 118 36 113 -44z"/>
<path d="M2395 3496 c-42 -18 -83 -69 -91 -112 -20 -110 47 -199 151 -199 157
0 214 201 84 298 -34 25 -105 31 -144 13z"/>
<path d="M1214 3431 c-11 -5 -33 -23 -47 -41 -93 -110 -23 -270 118 -270 73 0
139 59 150 134 9 58 -7 104 -50 146 -30 29 -43 34 -92 37 -32 1 -67 -1 -79 -6z"/>
<path d="M1773 3156 c-280 -54 -502 -195 -585 -373 -25 -53 -33 -84 -36 -149
-9 -178 67 -305 232 -384 133 -63 206 -75 466 -75 229 1 310 10 460 52 156 43
295 144 346 251 37 75 45 212 19 293 -55 171 -224 301 -471 365 -124 32 -321
41 -431 20z m297 -151 c215 -32 383 -124 442 -239 26 -51 34 -141 18 -191 -18
-54 -84 -122 -154 -157 -118 -59 -330 -98 -540 -98 -264 0 -439 59 -504 169
-36 61 -38 173 -5 237 67 126 261 238 480 278 102 19 149 19 263 1z"/>
<path d="M2070 2821 c-8 -6 -26 -34 -40 -63 -42 -89 -107 -100 -195 -33 -50
39 -84 44 -108 17 -42 -46 -2 -110 98 -158 61 -29 150 -32 202 -8 92 44 161
173 121 227 -16 20 -58 30 -78 18z"/>
</g>
</svg>
